<?xml version="1.0" encoding="UTF-8"?>
<svg width="160px" height="160px" viewBox="0 0 160 160" version="1.1" xmlns="http://www.w3.org/2000/svg" xmlns:xlink="http://www.w3.org/1999/xlink">
    <!-- Generator: Sketch 48.2 (47327) - http://www.bohemiancoding.com/sketch -->
    <title>Artboard</title>
    <desc>Created with Sketch.</desc>
    <defs></defs>
    <g id="VERSION-1" stroke="none" stroke-width="1" fill="none" fill-rule="evenodd">
        <g id="Artboard" fill="#8F8F8F" fill-rule="nonzero">
            <path d="M29.4282801,123.639221 C30.9156236,112.979926 35.8734354,103.560083 43.0622626,96.3712561 L64.6287439,117.937737 C57.4399168,125.126565 48.0200744,130.084376 37.360779,131.57172 C32.6508578,132.315392 28.6846083,128.349142 29.4282801,123.639221 Z M139.987483,28.2013437 C138.74803,55.9650898 127.840845,80.7541489 109.992722,99.0980526 C113.711081,112.484144 112.967409,131.819611 93.8798336,140 C92.1445995,133.802735 88.9220218,126.366018 83.96421,118.9293 C83.4684288,119.17719 82.9726476,119.425081 82.4768665,119.672972 C79.9979605,121.160315 76.7753829,120.664534 74.5443676,118.433519 L42.5664814,86.4556324 C40.5833567,84.4725077 39.8396849,81.24993 41.3270284,78.5231335 C41.574919,78.0273524 41.8228096,77.5315712 42.0707002,77.03579 C34.6339825,72.0779782 27.1972648,68.8554005 21,67.1201664 C28.4367177,48.2804815 48.5158555,47.2889191 61.9019474,51.007278 C80.2458511,33.1591555 105.03491,22.2519695 132.798656,21.0125165 C136.764906,20.764626 140.235374,24.2350942 139.987483,28.2013437 Z M97.8460831,42.8268885 C92.3924901,48.2804815 92.1445995,57.4524334 97.8460831,63.1539169 C103.547567,68.8554005 112.471628,68.8554005 118.173111,63.1539169 C123.874595,57.4524334 123.874595,48.5283721 118.173111,42.8268885 C112.471628,37.1254049 103.547567,37.1254049 97.8460831,42.8268885 Z" id="FEED_ICO"></path>
        </g>
    </g>
</svg>